<?xml version="1.0" encoding="utf-8"?>
<!-- Generator: Adobe Illustrator 22.0.1, SVG Export Plug-In . SVG Version: 6.00 Build 0)  -->
<svg version="1.1" id="Слой_1" xmlns="http://www.w3.org/2000/svg" xmlns:xlink="http://www.w3.org/1999/xlink" x="0px" y="0px"
	 viewBox="0 0 30 30" style="enable-background:new 0 0 30 30;" xml:space="preserve">
<style type="text/css">
	.st0{fill:#FFFFFF;}
</style>
<g>
	<g>
		<path class="st0" d="M9.3,10.3c1.5,0,2.7-1.2,2.7-2.7c0-1.5-1.2-2.7-2.7-2.7c-1.5,0-2.7,1.2-2.7,2.7C6.7,9.1,7.9,10.3,9.3,10.3z"
			/>
		<path class="st0" d="M20.7,10.3c1.5,0,2.7-1.2,2.7-2.7c0-1.5-1.2-2.7-2.7-2.7c-1.5,0-2.7,1.2-2.7,2.7C18,9.1,19.2,10.3,20.7,10.3z
			"/>
		<path class="st0" d="M29.6,21.4l-3.3-5.7c-0.4-0.8-1.4-1-2.2-0.6c-0.8,0.4-1,1.4-0.6,2.2l0.4,0.7c-2.3,2.4-5.5,3.8-8.9,3.8
			c-3.4,0-6.5-1.4-8.8-3.8l0.4-0.7C7,16.6,6.7,15.6,6,15.1c-0.8-0.4-1.7-0.2-2.2,0.6l-3.3,5.7C0,22.2,0.3,23.2,1,23.6
			c0.3,0.1,0.5,0.2,0.8,0.2c0.6,0,1.1-0.3,1.4-0.8l1.3-2.2C7.3,23.5,11.1,25,15,25c3.9,0,7.7-1.5,10.5-4.1l1.3,2.2
			c0.3,0.5,0.8,0.8,1.4,0.8c0.3,0,0.6-0.1,0.8-0.2C29.7,23.2,30,22.2,29.6,21.4z"/>
	</g>
</g>
</svg>
